<mxfile host="app.diagrams.net" modified="2023-07-29T06:29:12.958Z" agent="Mozilla/5.0 (Windows NT 10.0; Win64; x64) AppleWebKit/537.36 (KHTML, like Gecko) Chrome/115.0.0.0 Safari/537.36 Edg/115.0.1901.188" etag="8NxIDXu72Xz_inPHSpJm" version="21.6.2" type="github">
  <diagram id="a45cf8ec-cd66-6f27-3ac3-be6e809c9e4a" name="Service provisioning flow">
    <mxGraphModel dx="1050" dy="573" grid="1" gridSize="10" guides="1" tooltips="1" connect="1" arrows="1" fold="1" page="1" pageScale="1" pageWidth="827" pageHeight="1169" background="none" math="0" shadow="0">
      <root>
        <mxCell id="0" />
        <mxCell id="1" parent="0" />
        <mxCell id="SUnXgk1m0WSZ1oRZI_JK-179" style="edgeStyle=none;rounded=0;orthogonalLoop=1;jettySize=auto;html=1;exitX=0.5;exitY=1;exitDx=0;exitDy=0;entryX=0.5;entryY=0;entryDx=0;entryDy=0;" edge="1" parent="1" source="SUnXgk1m0WSZ1oRZI_JK-172" target="SUnXgk1m0WSZ1oRZI_JK-173">
          <mxGeometry relative="1" as="geometry" />
        </mxCell>
        <mxCell id="SUnXgk1m0WSZ1oRZI_JK-186" value="ddos protected &lt;br&gt;end-user traffic" style="edgeLabel;html=1;align=center;verticalAlign=middle;resizable=0;points=[];" vertex="1" connectable="0" parent="SUnXgk1m0WSZ1oRZI_JK-179">
          <mxGeometry x="-0.08" y="2" relative="1" as="geometry">
            <mxPoint as="offset" />
          </mxGeometry>
        </mxCell>
        <mxCell id="SUnXgk1m0WSZ1oRZI_JK-206" style="edgeStyle=none;rounded=0;orthogonalLoop=1;jettySize=auto;html=1;entryX=0.5;entryY=0;entryDx=0;entryDy=0;" edge="1" parent="1" source="SUnXgk1m0WSZ1oRZI_JK-205" target="SUnXgk1m0WSZ1oRZI_JK-172">
          <mxGeometry relative="1" as="geometry">
            <mxPoint x="430" y="70" as="targetPoint" />
          </mxGeometry>
        </mxCell>
        <mxCell id="SUnXgk1m0WSZ1oRZI_JK-207" value="https end-user traffic" style="edgeLabel;html=1;align=center;verticalAlign=middle;resizable=0;points=[];" vertex="1" connectable="0" parent="SUnXgk1m0WSZ1oRZI_JK-206">
          <mxGeometry x="0.025" y="2" relative="1" as="geometry">
            <mxPoint as="offset" />
          </mxGeometry>
        </mxCell>
        <mxCell id="SUnXgk1m0WSZ1oRZI_JK-172" value="cloudflare cdn" style="rounded=0;whiteSpace=wrap;html=1;fontStyle=2" vertex="1" parent="1">
          <mxGeometry x="310" y="180" width="120" height="60" as="geometry" />
        </mxCell>
        <mxCell id="SUnXgk1m0WSZ1oRZI_JK-180" style="edgeStyle=none;rounded=0;orthogonalLoop=1;jettySize=auto;html=1;exitX=0.5;exitY=1;exitDx=0;exitDy=0;entryX=0.5;entryY=0;entryDx=0;entryDy=0;" edge="1" parent="1" source="SUnXgk1m0WSZ1oRZI_JK-173" target="SUnXgk1m0WSZ1oRZI_JK-174">
          <mxGeometry relative="1" as="geometry" />
        </mxCell>
        <mxCell id="SUnXgk1m0WSZ1oRZI_JK-187" value="authorized service &lt;br&gt;change request" style="edgeLabel;html=1;align=center;verticalAlign=middle;resizable=0;points=[];" vertex="1" connectable="0" parent="SUnXgk1m0WSZ1oRZI_JK-180">
          <mxGeometry x="-0.1067" y="1" relative="1" as="geometry">
            <mxPoint as="offset" />
          </mxGeometry>
        </mxCell>
        <mxCell id="SUnXgk1m0WSZ1oRZI_JK-184" style="edgeStyle=none;rounded=0;orthogonalLoop=1;jettySize=auto;html=1;exitX=1;exitY=0.5;exitDx=0;exitDy=0;entryX=0;entryY=0.5;entryDx=0;entryDy=0;" edge="1" parent="1" source="SUnXgk1m0WSZ1oRZI_JK-173" target="SUnXgk1m0WSZ1oRZI_JK-178">
          <mxGeometry relative="1" as="geometry" />
        </mxCell>
        <mxCell id="SUnXgk1m0WSZ1oRZI_JK-189" value="redirected&lt;br&gt;end-user &lt;br&gt;traffic" style="edgeLabel;html=1;align=center;verticalAlign=middle;resizable=0;points=[];" vertex="1" connectable="0" parent="SUnXgk1m0WSZ1oRZI_JK-184">
          <mxGeometry x="-0.128" relative="1" as="geometry">
            <mxPoint as="offset" />
          </mxGeometry>
        </mxCell>
        <mxCell id="SUnXgk1m0WSZ1oRZI_JK-194" style="edgeStyle=orthogonalEdgeStyle;curved=1;rounded=0;orthogonalLoop=1;jettySize=auto;html=1;exitX=0;exitY=0.5;exitDx=0;exitDy=0;entryX=1;entryY=0.25;entryDx=0;entryDy=0;" edge="1" parent="1" source="SUnXgk1m0WSZ1oRZI_JK-173" target="SUnXgk1m0WSZ1oRZI_JK-193">
          <mxGeometry relative="1" as="geometry" />
        </mxCell>
        <mxCell id="SUnXgk1m0WSZ1oRZI_JK-199" value="telegraf&lt;br&gt;monitoring&lt;br&gt;events" style="edgeLabel;html=1;align=center;verticalAlign=middle;resizable=0;points=[];" vertex="1" connectable="0" parent="SUnXgk1m0WSZ1oRZI_JK-194">
          <mxGeometry x="-0.0347" y="-4" relative="1" as="geometry">
            <mxPoint as="offset" />
          </mxGeometry>
        </mxCell>
        <mxCell id="SUnXgk1m0WSZ1oRZI_JK-211" style="edgeStyle=none;rounded=0;orthogonalLoop=1;jettySize=auto;html=1;exitX=1;exitY=0.25;exitDx=0;exitDy=0;" edge="1" parent="1" source="SUnXgk1m0WSZ1oRZI_JK-173" target="SUnXgk1m0WSZ1oRZI_JK-209">
          <mxGeometry relative="1" as="geometry">
            <mxPoint x="620" y="160" as="targetPoint" />
          </mxGeometry>
        </mxCell>
        <mxCell id="SUnXgk1m0WSZ1oRZI_JK-212" value="automated&lt;br&gt;certificate requests" style="edgeLabel;html=1;align=center;verticalAlign=middle;resizable=0;points=[];" vertex="1" connectable="0" parent="SUnXgk1m0WSZ1oRZI_JK-211">
          <mxGeometry x="-0.0155" y="-1" relative="1" as="geometry">
            <mxPoint as="offset" />
          </mxGeometry>
        </mxCell>
        <mxCell id="SUnXgk1m0WSZ1oRZI_JK-173" value="landing page&lt;br&gt;+ client area&lt;br&gt;front-end" style="rounded=0;whiteSpace=wrap;html=1;" vertex="1" parent="1">
          <mxGeometry x="310" y="300" width="120" height="60" as="geometry" />
        </mxCell>
        <mxCell id="SUnXgk1m0WSZ1oRZI_JK-181" style="edgeStyle=none;rounded=0;orthogonalLoop=1;jettySize=auto;html=1;exitX=0.25;exitY=1;exitDx=0;exitDy=0;entryX=0.5;entryY=0;entryDx=0;entryDy=0;" edge="1" parent="1" source="SUnXgk1m0WSZ1oRZI_JK-174" target="SUnXgk1m0WSZ1oRZI_JK-175">
          <mxGeometry relative="1" as="geometry" />
        </mxCell>
        <mxCell id="SUnXgk1m0WSZ1oRZI_JK-190" value="proxy service &lt;br&gt;requests" style="edgeLabel;html=1;align=center;verticalAlign=middle;resizable=0;points=[];" vertex="1" connectable="0" parent="SUnXgk1m0WSZ1oRZI_JK-181">
          <mxGeometry x="-0.1673" relative="1" as="geometry">
            <mxPoint as="offset" />
          </mxGeometry>
        </mxCell>
        <mxCell id="SUnXgk1m0WSZ1oRZI_JK-182" style="edgeStyle=none;rounded=0;orthogonalLoop=1;jettySize=auto;html=1;exitX=0.5;exitY=1;exitDx=0;exitDy=0;entryX=0.5;entryY=0;entryDx=0;entryDy=0;" edge="1" parent="1" source="SUnXgk1m0WSZ1oRZI_JK-174" target="SUnXgk1m0WSZ1oRZI_JK-176">
          <mxGeometry relative="1" as="geometry" />
        </mxCell>
        <mxCell id="SUnXgk1m0WSZ1oRZI_JK-191" value="wrp service &lt;br&gt;requests" style="edgeLabel;html=1;align=center;verticalAlign=middle;resizable=0;points=[];" vertex="1" connectable="0" parent="SUnXgk1m0WSZ1oRZI_JK-182">
          <mxGeometry x="-0.136" y="-1" relative="1" as="geometry">
            <mxPoint as="offset" />
          </mxGeometry>
        </mxCell>
        <mxCell id="SUnXgk1m0WSZ1oRZI_JK-183" style="edgeStyle=none;rounded=0;orthogonalLoop=1;jettySize=auto;html=1;exitX=0.75;exitY=1;exitDx=0;exitDy=0;entryX=0.5;entryY=0;entryDx=0;entryDy=0;" edge="1" parent="1" source="SUnXgk1m0WSZ1oRZI_JK-174" target="SUnXgk1m0WSZ1oRZI_JK-177">
          <mxGeometry relative="1" as="geometry" />
        </mxCell>
        <mxCell id="SUnXgk1m0WSZ1oRZI_JK-192" value="wrp service &lt;br&gt;requests" style="edgeLabel;html=1;align=center;verticalAlign=middle;resizable=0;points=[];" vertex="1" connectable="0" parent="SUnXgk1m0WSZ1oRZI_JK-183">
          <mxGeometry x="-0.1614" y="2" relative="1" as="geometry">
            <mxPoint as="offset" />
          </mxGeometry>
        </mxCell>
        <mxCell id="SUnXgk1m0WSZ1oRZI_JK-195" style="edgeStyle=orthogonalEdgeStyle;curved=1;rounded=0;orthogonalLoop=1;jettySize=auto;html=1;exitX=0;exitY=0.5;exitDx=0;exitDy=0;entryX=1;entryY=0.5;entryDx=0;entryDy=0;" edge="1" parent="1" source="SUnXgk1m0WSZ1oRZI_JK-174" target="SUnXgk1m0WSZ1oRZI_JK-193">
          <mxGeometry relative="1" as="geometry">
            <mxPoint x="200" y="490" as="targetPoint" />
          </mxGeometry>
        </mxCell>
        <mxCell id="SUnXgk1m0WSZ1oRZI_JK-200" value="telegraf&lt;br style=&quot;border-color: var(--border-color);&quot;&gt;monitoring&lt;br style=&quot;border-color: var(--border-color);&quot;&gt;events" style="edgeLabel;html=1;align=center;verticalAlign=middle;resizable=0;points=[];" vertex="1" connectable="0" parent="SUnXgk1m0WSZ1oRZI_JK-195">
          <mxGeometry x="0.0079" y="1" relative="1" as="geometry">
            <mxPoint as="offset" />
          </mxGeometry>
        </mxCell>
        <mxCell id="SUnXgk1m0WSZ1oRZI_JK-221" style="edgeStyle=orthogonalEdgeStyle;rounded=0;orthogonalLoop=1;jettySize=auto;html=1;exitX=0.25;exitY=0;exitDx=0;exitDy=0;" edge="1" parent="1" source="SUnXgk1m0WSZ1oRZI_JK-174" target="SUnXgk1m0WSZ1oRZI_JK-205">
          <mxGeometry relative="1" as="geometry">
            <Array as="points">
              <mxPoint x="340" y="410" />
              <mxPoint x="270" y="410" />
              <mxPoint x="270" y="70" />
            </Array>
          </mxGeometry>
        </mxCell>
        <mxCell id="SUnXgk1m0WSZ1oRZI_JK-222" value="service email &lt;br&gt;notifications" style="edgeLabel;html=1;align=center;verticalAlign=middle;resizable=0;points=[];" vertex="1" connectable="0" parent="SUnXgk1m0WSZ1oRZI_JK-221">
          <mxGeometry x="0.1421" relative="1" as="geometry">
            <mxPoint as="offset" />
          </mxGeometry>
        </mxCell>
        <mxCell id="SUnXgk1m0WSZ1oRZI_JK-174" value="service orchestrator back-end" style="rounded=0;whiteSpace=wrap;html=1;" vertex="1" parent="1">
          <mxGeometry x="310" y="420" width="120" height="60" as="geometry" />
        </mxCell>
        <mxCell id="SUnXgk1m0WSZ1oRZI_JK-196" style="edgeStyle=orthogonalEdgeStyle;curved=1;rounded=0;orthogonalLoop=1;jettySize=auto;html=1;exitX=0;exitY=0.5;exitDx=0;exitDy=0;entryX=0.75;entryY=1;entryDx=0;entryDy=0;" edge="1" parent="1" source="SUnXgk1m0WSZ1oRZI_JK-175" target="SUnXgk1m0WSZ1oRZI_JK-193">
          <mxGeometry relative="1" as="geometry">
            <Array as="points">
              <mxPoint x="106" y="585" />
            </Array>
          </mxGeometry>
        </mxCell>
        <mxCell id="SUnXgk1m0WSZ1oRZI_JK-201" value="telegraf&lt;br style=&quot;border-color: var(--border-color);&quot;&gt;monitoring&lt;br style=&quot;border-color: var(--border-color);&quot;&gt;events" style="edgeLabel;html=1;align=center;verticalAlign=middle;resizable=0;points=[];" vertex="1" connectable="0" parent="SUnXgk1m0WSZ1oRZI_JK-196">
          <mxGeometry x="0.2118" y="-1" relative="1" as="geometry">
            <mxPoint as="offset" />
          </mxGeometry>
        </mxCell>
        <mxCell id="SUnXgk1m0WSZ1oRZI_JK-197" style="edgeStyle=orthogonalEdgeStyle;curved=1;rounded=0;orthogonalLoop=1;jettySize=auto;html=1;exitX=0;exitY=0.5;exitDx=0;exitDy=0;entryX=0.5;entryY=1;entryDx=0;entryDy=0;" edge="1" parent="1" source="SUnXgk1m0WSZ1oRZI_JK-176" target="SUnXgk1m0WSZ1oRZI_JK-193">
          <mxGeometry relative="1" as="geometry">
            <Array as="points">
              <mxPoint x="280" y="585" />
              <mxPoint x="280" y="670" />
              <mxPoint x="76" y="670" />
            </Array>
          </mxGeometry>
        </mxCell>
        <mxCell id="SUnXgk1m0WSZ1oRZI_JK-202" value="telegraf&lt;br style=&quot;border-color: var(--border-color);&quot;&gt;monitoring&lt;br style=&quot;border-color: var(--border-color);&quot;&gt;events" style="edgeLabel;html=1;align=center;verticalAlign=middle;resizable=0;points=[];" vertex="1" connectable="0" parent="SUnXgk1m0WSZ1oRZI_JK-197">
          <mxGeometry x="-0.1909" y="-1" relative="1" as="geometry">
            <mxPoint as="offset" />
          </mxGeometry>
        </mxCell>
        <mxCell id="SUnXgk1m0WSZ1oRZI_JK-198" style="edgeStyle=orthogonalEdgeStyle;curved=1;rounded=0;orthogonalLoop=1;jettySize=auto;html=1;exitX=0;exitY=0.5;exitDx=0;exitDy=0;entryX=0.25;entryY=1;entryDx=0;entryDy=0;" edge="1" parent="1" source="SUnXgk1m0WSZ1oRZI_JK-177" target="SUnXgk1m0WSZ1oRZI_JK-193">
          <mxGeometry relative="1" as="geometry">
            <Array as="points">
              <mxPoint x="450" y="585" />
              <mxPoint x="450" y="720" />
              <mxPoint x="46" y="720" />
            </Array>
          </mxGeometry>
        </mxCell>
        <mxCell id="SUnXgk1m0WSZ1oRZI_JK-203" value="telegraf&lt;br style=&quot;border-color: var(--border-color);&quot;&gt;monitoring&lt;br style=&quot;border-color: var(--border-color);&quot;&gt;events" style="edgeLabel;html=1;align=center;verticalAlign=middle;resizable=0;points=[];" vertex="1" connectable="0" parent="SUnXgk1m0WSZ1oRZI_JK-198">
          <mxGeometry x="-0.1511" y="-3" relative="1" as="geometry">
            <mxPoint as="offset" />
          </mxGeometry>
        </mxCell>
        <mxCell id="SUnXgk1m0WSZ1oRZI_JK-185" style="edgeStyle=none;rounded=0;orthogonalLoop=1;jettySize=auto;html=1;exitX=0.5;exitY=1;exitDx=0;exitDy=0;entryX=0.75;entryY=0;entryDx=0;entryDy=0;" edge="1" parent="1" source="SUnXgk1m0WSZ1oRZI_JK-178" target="SUnXgk1m0WSZ1oRZI_JK-174">
          <mxGeometry relative="1" as="geometry" />
        </mxCell>
        <mxCell id="SUnXgk1m0WSZ1oRZI_JK-188" value="authorized service &lt;br&gt;provisioning&lt;br&gt;request" style="edgeLabel;html=1;align=center;verticalAlign=middle;resizable=0;points=[];" vertex="1" connectable="0" parent="SUnXgk1m0WSZ1oRZI_JK-185">
          <mxGeometry x="0.041" y="2" relative="1" as="geometry">
            <mxPoint as="offset" />
          </mxGeometry>
        </mxCell>
        <mxCell id="SUnXgk1m0WSZ1oRZI_JK-178" value="3rd party storefront" style="rounded=0;whiteSpace=wrap;html=1;fontStyle=2" vertex="1" parent="1">
          <mxGeometry x="510" y="300" width="120" height="60" as="geometry" />
        </mxCell>
        <mxCell id="SUnXgk1m0WSZ1oRZI_JK-205" value="Modern client" style="sketch=0;pointerEvents=1;shadow=0;dashed=0;html=1;strokeColor=none;fillColor=#505050;labelPosition=center;verticalLabelPosition=bottom;verticalAlign=top;outlineConnect=0;align=center;shape=mxgraph.office.devices.laptop;fontStyle=2" vertex="1" parent="1">
          <mxGeometry x="320" y="40" width="100" height="60" as="geometry" />
        </mxCell>
        <mxCell id="SUnXgk1m0WSZ1oRZI_JK-209" value="letsencrypt" style="sketch=0;outlineConnect=0;fontColor=#232F3E;gradientColor=none;strokeColor=#232F3E;fillColor=#ffffff;dashed=0;verticalLabelPosition=bottom;verticalAlign=top;align=center;html=1;fontSize=12;fontStyle=2;aspect=fixed;shape=mxgraph.aws4.resourceIcon;resIcon=mxgraph.aws4.certificate_manager_2;" vertex="1" parent="1">
          <mxGeometry x="680" y="129" width="60" height="60" as="geometry" />
        </mxCell>
        <mxCell id="SUnXgk1m0WSZ1oRZI_JK-210" value="IdP + Auth?" style="sketch=0;points=[[0,0,0],[0.25,0,0],[0.5,0,0],[0.75,0,0],[1,0,0],[0,1,0],[0.25,1,0],[0.5,1,0],[0.75,1,0],[1,1,0],[0,0.25,0],[0,0.5,0],[0,0.75,0],[1,0.25,0],[1,0.5,0],[1,0.75,0]];outlineConnect=0;fontColor=#232F3E;gradientColor=#F54749;gradientDirection=north;fillColor=#C7131F;strokeColor=#ffffff;dashed=0;verticalLabelPosition=bottom;verticalAlign=top;align=center;html=1;fontSize=12;fontStyle=0;aspect=fixed;shape=mxgraph.aws4.resourceIcon;resIcon=mxgraph.aws4.cognito;" vertex="1" parent="1">
          <mxGeometry x="80" y="150" width="60" height="60" as="geometry" />
        </mxCell>
        <mxCell id="SUnXgk1m0WSZ1oRZI_JK-217" value="" style="group" vertex="1" connectable="0" parent="1">
          <mxGeometry x="16" y="385" width="120" height="80" as="geometry" />
        </mxCell>
        <mxCell id="SUnXgk1m0WSZ1oRZI_JK-193" value="grafana + influxdb service" style="rounded=0;whiteSpace=wrap;html=1;" vertex="1" parent="SUnXgk1m0WSZ1oRZI_JK-217">
          <mxGeometry y="20" width="120" height="60" as="geometry" />
        </mxCell>
        <mxCell id="SUnXgk1m0WSZ1oRZI_JK-213" value="" style="image;aspect=fixed;html=1;points=[];align=center;fontSize=12;image=img/lib/azure2/other/Grafana.svg;" vertex="1" parent="SUnXgk1m0WSZ1oRZI_JK-217">
          <mxGeometry width="25.76" height="20" as="geometry" />
        </mxCell>
        <mxCell id="SUnXgk1m0WSZ1oRZI_JK-218" value="" style="group" vertex="1" connectable="0" parent="1">
          <mxGeometry x="140" y="535" width="120" height="80" as="geometry" />
        </mxCell>
        <mxCell id="SUnXgk1m0WSZ1oRZI_JK-175" value="proxy service" style="rounded=0;whiteSpace=wrap;html=1;" vertex="1" parent="SUnXgk1m0WSZ1oRZI_JK-218">
          <mxGeometry y="20" width="120" height="60" as="geometry" />
        </mxCell>
        <mxCell id="SUnXgk1m0WSZ1oRZI_JK-216" value="" style="pointerEvents=1;shadow=0;dashed=0;html=1;strokeColor=none;fillColor=#4495D1;labelPosition=center;verticalLabelPosition=bottom;verticalAlign=top;align=center;outlineConnect=0;shape=mxgraph.veeam.2d.proxy_appliance;" vertex="1" parent="SUnXgk1m0WSZ1oRZI_JK-218">
          <mxGeometry width="20" height="20" as="geometry" />
        </mxCell>
        <mxCell id="SUnXgk1m0WSZ1oRZI_JK-219" value="" style="group" vertex="1" connectable="0" parent="1">
          <mxGeometry x="310" y="530" width="120" height="85" as="geometry" />
        </mxCell>
        <mxCell id="SUnXgk1m0WSZ1oRZI_JK-176" value="wrp docker host 1" style="rounded=0;whiteSpace=wrap;html=1;" vertex="1" parent="SUnXgk1m0WSZ1oRZI_JK-219">
          <mxGeometry y="25" width="120" height="60" as="geometry" />
        </mxCell>
        <mxCell id="SUnXgk1m0WSZ1oRZI_JK-214" value="" style="shape=image;html=1;verticalAlign=top;verticalLabelPosition=bottom;labelBackgroundColor=#ffffff;imageAspect=0;aspect=fixed;image=https://cdn1.iconfinder.com/data/icons/unicons-line-vol-3/24/docker-128.png" vertex="1" parent="SUnXgk1m0WSZ1oRZI_JK-219">
          <mxGeometry width="25" height="25" as="geometry" />
        </mxCell>
        <mxCell id="SUnXgk1m0WSZ1oRZI_JK-220" value="" style="group" vertex="1" connectable="0" parent="1">
          <mxGeometry x="480" y="530" width="120" height="85" as="geometry" />
        </mxCell>
        <mxCell id="SUnXgk1m0WSZ1oRZI_JK-177" value="wrp docker host 2" style="rounded=0;whiteSpace=wrap;html=1;" vertex="1" parent="SUnXgk1m0WSZ1oRZI_JK-220">
          <mxGeometry y="25" width="120" height="60" as="geometry" />
        </mxCell>
        <mxCell id="SUnXgk1m0WSZ1oRZI_JK-215" value="" style="shape=image;html=1;verticalAlign=top;verticalLabelPosition=bottom;labelBackgroundColor=#ffffff;imageAspect=0;aspect=fixed;image=https://cdn1.iconfinder.com/data/icons/unicons-line-vol-3/24/docker-128.png" vertex="1" parent="SUnXgk1m0WSZ1oRZI_JK-220">
          <mxGeometry width="25" height="25" as="geometry" />
        </mxCell>
      </root>
    </mxGraphModel>
  </diagram>
</mxfile>
